<svg version="1.1" preserveAspectRatio="none" xmlns="http://www.w3.org/2000/svg" width="500" height="500" viewBox="0 0 500 500"><rect width="100%" height="100%" fill="#F5F5F5" fill-opacity="1"/><svg viewBox="84.7767 157.9999 426.2197 150" width="333" height="117.19308140848487" x="83.5px" y="191.4035px" xmlns="http://www.w3.org/2000/svg" xmlns:xlink="http://www.w3.org/1999/xlink" preserveAspectRatio="none"><defs></defs><style>.companyName {fill:#08376B;fill-opacity:1;}.icon1 {fill:#35C0ED;fill-opacity:1;}.icon2 {fill:#9AEBA6;fill-opacity:1;}.icon3 {fill:#2F90B0;fill-opacity:1;}.icon3-str {stroke:#2F90B0;stroke-opacity:1;}.shapeStroke-str {stroke:#08376B;stroke-opacity:1;}</style><g opacity="1" transform="rotate(0 84.7767 172.9999)">
<svg width="120.0014" height="120" x="84.7767" y="172.9999" version="1.1" preserveAspectRatio="none" viewBox="7.629999160766602 5.8652801513671875 88.15171813964844 88.15071105957031">
  <g transform="matrix(1 0 0 1 0 0)" class="icon1"><path d="M84.553,8.371l-18.58,19.941l-45.116-9.266l-5.423,5.418l36.186,19.239L26.414,70.741c-0.477,0.52-0.892,1.03-1.274,1.547  l-15.982-3.96l-1.528,1.53l13.043,8.936l-0.798,2.974l2.975-0.797l8.937,13.045l1.53-1.525l-3.961-15.993  c0.516-0.378,1.032-0.792,1.539-1.267l27.045-25.202l19.24,36.19l5.424-5.427l-9.27-45.118l19.936-18.59  c2.975-2.764,3.363-7.069,0.865-9.569C91.635,5.014,87.324,5.402,84.553,8.371z"></path></g>
</svg>
</g><g opacity="1" transform="rotate(0 268.7781 172.9999)">
<svg width="242.2183" height="120" x="268.7781" y="172.9999" version="1.1" preserveAspectRatio="none" viewBox="4.8 -28.48 143.24 70.96000000000001">
  <g transform="matrix(1 0 0 1 0 0)" class="companyName"><path id="id-D6z1nYkh15" d="M8.44 0L8.44-11.68Q9.48-11.40 10.68-11.22Q11.88-11.04 13.32-11.04L13.32-11.04Q15.76-11.04 17.64-11.72Q19.52-12.40 20.78-13.58Q22.04-14.76 22.68-16.30Q23.32-17.84 23.32-19.60L23.32-19.60Q23.32-21.28 22.76-22.82Q22.20-24.36 21.06-25.50Q19.92-26.64 18.20-27.32Q16.48-28 14.16-28L14.16-28L4.80-28L4.80 0L8.44 0ZM8.44-13.32L8.44-26.24L12.64-26.24Q14.32-26.24 15.60-25.64Q16.88-25.04 17.72-24.06Q18.56-23.08 18.98-21.86Q19.40-20.64 19.40-19.44L19.40-19.44Q19.40-18.28 19.02-17.10Q18.64-15.92 17.80-14.96Q16.96-14 15.68-13.40Q14.40-12.80 12.60-12.80L12.60-12.80Q11.36-12.80 10.32-12.90Q9.28-13 8.44-13.32L8.44-13.32Z M31.12-20L27.72-20L27.72 0L31.12 0L31.12-12.08Q31.12-13.72 31.50-14.86Q31.88-16 32.48-16.72Q33.08-17.44 33.80-17.76Q34.52-18.08 35.20-18.08L35.20-18.08Q36.12-18.08 36.90-17.48Q37.68-16.88 38.04-16.36L38.04-16.36L39.40-18.84Q39.04-19.32 38.54-19.64Q38.04-19.96 37.54-20.14Q37.04-20.32 36.62-20.38Q36.20-20.44 36-20.44L36-20.44Q34.32-20.44 33.20-19.52Q32.08-18.60 31.36-16.80L31.36-16.80L31.12-16.80L31.12-20Z M47.68-20L44.28-20L44.28 0L47.68 0L47.68-20ZM43.80-26.32L43.80-26.32Q43.80-25.44 44.44-24.80Q45.08-24.16 45.96-24.16L45.96-24.16Q46.84-24.16 47.48-24.80Q48.12-25.44 48.12-26.32L48.12-26.32Q48.12-27.20 47.48-27.84Q46.84-28.48 45.96-28.48L45.96-28.48Q45.08-28.48 44.44-27.84Q43.80-27.20 43.80-26.32Z M56.80-18.40L53.32-18.40L53.32-20L56.80-20L56.80-26.16L60.20-26.16L60.20-20L65.04-20L65.04-18.40L60.20-18.40L60.20-5.12Q60.20-4.64 60.24-4.02Q60.28-3.40 60.48-2.86Q60.68-2.32 61.10-1.96Q61.52-1.60 62.28-1.60L62.28-1.60Q63.24-1.60 63.88-2.32Q64.52-3.04 64.92-3.88L64.92-3.88L66.80-1.96Q64.84 0 62.36 0L62.36 0Q61.32 0 60.32-0.36Q59.32-0.72 58.54-1.46Q57.76-2.20 57.28-3.36Q56.80-4.52 56.80-6.08L56.80-6.08L56.80-18.40Z M71.40-20L67.92-20L74.84 0L77 0L81.64-13.40L81.80-13.40L87 0L88.88 0L96.16-20L94.08-20L88.64-5.04L88.48-5.04L82.80-20L82-20L76.76-4.92L76.60-4.92L71.40-20Z M104.84-20L101.44-20L101.44 0L104.84 0L104.84-20ZM100.96-26.32L100.96-26.32Q100.96-25.44 101.60-24.80Q102.24-24.16 103.12-24.16L103.12-24.16Q104.00-24.16 104.64-24.80Q105.28-25.44 105.28-26.32L105.28-26.32Q105.28-27.20 104.64-27.84Q104.00-28.48 103.12-28.48L103.12-28.48Q102.24-28.48 101.60-27.84Q100.96-27.20 100.96-26.32Z M122.96-15.44L125.24-15.44Q125.24-16.52 124.68-17.44Q124.12-18.36 123.14-19.02Q122.16-19.68 120.86-20.06Q119.56-20.44 118.08-20.44L118.08-20.44Q116.68-20.44 115.46-20.08Q114.24-19.72 113.34-19Q112.44-18.28 111.92-17.22Q111.40-16.16 111.40-14.76L111.40-14.76Q111.40-12.84 112.28-11.72Q113.16-10.60 114.48-9.92Q115.80-9.24 117.34-8.82Q118.88-8.40 120.20-7.90Q121.52-7.40 122.40-6.64Q123.28-5.88 123.28-4.56L123.28-4.56Q123.28-4 123.10-3.40Q122.92-2.80 122.44-2.30Q121.96-1.80 121.12-1.46Q120.28-1.12 119-1.12L119-1.12Q117.40-1.12 116.30-1.62Q115.20-2.12 114.50-2.82Q113.80-3.52 113.50-4.24Q113.20-4.96 113.20-5.44L113.20-5.44L110.60-5.44Q110.60-4.32 111.12-3.26Q111.64-2.20 112.70-1.36Q113.76-0.52 115.30-0.02Q116.84 0.48 118.88 0.48L118.88 0.48Q122.56 0.48 124.42-1.14Q126.28-2.76 126.28-5.40L126.28-5.40Q126.28-7.32 125.38-8.48Q124.48-9.64 123.12-10.34Q121.76-11.04 120.18-11.48Q118.60-11.92 117.24-12.40Q115.88-12.88 114.98-13.56Q114.08-14.24 114.08-15.48L114.08-15.48Q114.08-16 114.28-16.58Q114.48-17.16 114.96-17.66Q115.44-18.16 116.24-18.50Q117.04-18.84 118.24-18.84L118.24-18.84Q119.44-18.84 120.32-18.50Q121.20-18.16 121.80-17.66Q122.40-17.16 122.68-16.56Q122.96-15.96 122.96-15.44L122.96-15.44Z M135.08-28L131.68-28L131.68 0L135.08 0L135.08-11.56Q135.08-12.36 135.20-13.52Q135.32-14.68 135.86-15.76Q136.40-16.84 137.48-17.62Q138.56-18.40 140.48-18.40L140.48-18.40Q141.84-18.40 142.66-17.90Q143.48-17.40 143.92-16.56Q144.36-15.72 144.50-14.60Q144.64-13.48 144.64-12.28L144.64-12.28L144.64 0L148.04 0L148.04-13.20Q148.04-15.44 147.40-16.86Q146.76-18.28 145.80-19.08Q144.84-19.88 143.70-20.16Q142.56-20.44 141.52-20.44L141.52-20.44Q140.12-20.44 138.58-19.90Q137.04-19.36 135.68-17.84L135.68-17.84L135.24-17.28L135.08-17.28L135.08-28Z M15.52 42L19.16 42L19.16 16.20L29.88 16.20L29.88 14L4.80 14L4.80 16.20L15.52 16.20L15.52 42Z M30.04 22L26.64 22L26.64 42L30.04 42L30.04 29.92Q30.04 28.28 30.42 27.14Q30.80 26 31.40 25.28Q32 24.56 32.72 24.24Q33.44 23.92 34.12 23.92L34.12 23.92Q35.04 23.92 35.82 24.52Q36.60 25.12 36.96 25.64L36.96 25.64L38.32 23.16Q37.96 22.68 37.46 22.36Q36.96 22.04 36.46 21.86Q35.96 21.68 35.54 21.62Q35.12 21.56 34.92 21.56L34.92 21.56Q33.24 21.56 32.12 22.48Q31 23.40 30.28 25.20L30.28 25.20L30.04 25.20L30.04 22Z M49.28 21.56L49.28 21.56Q52.20 21.56 53.80 22.38Q55.40 23.20 56.14 24.52Q56.88 25.84 57 27.56Q57.12 29.28 57.12 31.08L57.12 31.08L57.12 42L53.88 42L53.88 40.04Q52.72 41.16 50.92 41.82Q49.12 42.48 47.32 42.48L47.32 42.48Q45.60 42.48 44.28 41.88Q42.96 41.28 42.08 40.32Q41.20 39.36 40.76 38.16Q40.32 36.96 40.32 35.72L40.32 35.72Q40.32 34.44 40.80 33.16Q41.28 31.88 42.24 30.86Q43.20 29.84 44.60 29.20Q46 28.56 47.80 28.56L47.80 28.56Q49.60 28.56 51.22 29.26Q52.84 29.96 53.88 31.24L53.88 31.24L53.88 29.52Q53.88 26.24 52.90 24.64Q51.92 23.04 49.32 23.04L49.32 23.04Q48.20 23.04 47.36 23.32Q46.52 23.60 45.86 24.10Q45.20 24.60 44.64 25.34Q44.08 26.08 43.52 27L43.52 27L41.44 24.92Q42 24.32 42.62 23.72Q43.24 23.12 44.14 22.64Q45.04 22.16 46.28 21.86Q47.52 21.56 49.28 21.56ZM53.88 37.16L53.88 34.08Q53.68 33.60 53.30 32.96Q52.92 32.32 52.32 31.72Q51.72 31.12 50.88 30.70Q50.04 30.28 48.88 30.28L48.88 30.28Q47.72 30.28 46.76 30.74Q45.80 31.20 45.14 31.94Q44.48 32.68 44.12 33.68Q43.76 34.68 43.76 35.76L43.76 35.76Q43.76 37.04 44.22 37.98Q44.68 38.92 45.40 39.58Q46.12 40.24 47 40.56Q47.88 40.88 48.68 40.88L48.68 40.88Q49.44 40.88 50.22 40.60Q51 40.32 51.70 39.82Q52.40 39.32 52.96 38.64Q53.52 37.96 53.88 37.16L53.88 37.16Z M64.64 22L61.12 22L69.44 42L71.84 42L79.92 22L78.04 22L71.56 38.04L71.32 38.04L64.64 22Z M86.48 32.88L101.68 32.88L101.68 32.04Q101.68 29.36 100.92 27.40Q100.16 25.44 98.86 24.16Q97.56 22.88 95.84 22.24Q94.12 21.60 92.20 21.60L92.20 21.60Q90.16 21.60 88.44 22.30Q86.72 23 85.44 24.34Q84.16 25.68 83.44 27.58Q82.72 29.48 82.72 31.88L82.72 31.88Q82.72 33.88 83.34 35.78Q83.96 37.68 85.22 39.18Q86.48 40.68 88.42 41.58Q90.36 42.48 93 42.48L93 42.48Q95.56 42.48 97.72 41.58Q99.88 40.68 101.48 39L101.48 39L100.20 37.72Q99.36 38.44 98.62 39.04Q97.88 39.64 97.12 40.04Q96.36 40.44 95.54 40.66Q94.72 40.88 93.72 40.88L93.72 40.88Q92.60 40.88 91.34 40.54Q90.08 40.20 89 39.32Q87.92 38.44 87.20 36.88Q86.48 35.32 86.48 32.88L86.48 32.88ZM98.20 31.28L86.48 31.28Q86.48 29.68 86.82 28.18Q87.16 26.68 87.86 25.52Q88.56 24.36 89.64 23.66Q90.72 22.96 92.20 22.96L92.20 22.96Q95.04 22.96 96.62 25.18Q98.20 27.40 98.20 31.28L98.20 31.28Z M111.08 42L111.08 14L107.68 14L107.68 42L111.08 42Z M128.76 26.56L131.04 26.56Q131.04 25.48 130.48 24.56Q129.92 23.64 128.94 22.98Q127.96 22.32 126.66 21.94Q125.36 21.56 123.88 21.56L123.88 21.56Q122.48 21.56 121.26 21.92Q120.04 22.28 119.14 23Q118.24 23.72 117.72 24.78Q117.20 25.84 117.20 27.24L117.20 27.24Q117.20 29.16 118.08 30.28Q118.96 31.40 120.28 32.08Q121.60 32.76 123.14 33.18Q124.68 33.60 126.00 34.10Q127.32 34.60 128.20 35.36Q129.08 36.12 129.08 37.44L129.08 37.44Q129.08 38 128.90 38.60Q128.72 39.20 128.24 39.70Q127.76 40.20 126.92 40.54Q126.08 40.88 124.80 40.88L124.80 40.88Q123.20 40.88 122.10 40.38Q121.00 39.88 120.30 39.18Q119.60 38.48 119.30 37.76Q119.00 37.04 119.00 36.56L119.00 36.56L116.40 36.56Q116.40 37.68 116.92 38.74Q117.44 39.80 118.50 40.64Q119.56 41.48 121.10 41.98Q122.64 42.48 124.68 42.48L124.68 42.48Q128.36 42.48 130.22 40.86Q132.08 39.24 132.08 36.60L132.08 36.60Q132.08 34.68 131.18 33.52Q130.28 32.36 128.92 31.66Q127.56 30.96 125.98 30.52Q124.40 30.08 123.04 29.60Q121.68 29.12 120.78 28.44Q119.88 27.76 119.88 26.52L119.88 26.52Q119.88 26 120.08 25.42Q120.28 24.84 120.76 24.34Q121.24 23.84 122.04 23.50Q122.84 23.16 124.04 23.16L124.04 23.16Q125.24 23.16 126.12 23.50Q127.00 23.84 127.60 24.34Q128.20 24.84 128.48 25.44Q128.76 26.04 128.76 26.56L128.76 26.56Z"/></g>
</svg>
</g><g opacity="1" transform="rotate(0 233.7781 157.9999)">
<svg width="3" height="150" x="233.7781" y="157.9999" version="1.1" preserveAspectRatio="none" viewBox="0 0 3 150">
  <defs><rect x="0" y="0" width="3" height="150" rx="0px" ry="0px" id="id-tBXipXk0b1707217528692"></rect></defs><use class="companyName shapeStroke-str" style="stroke-width:0;" xlink:href="#id-tBXipXk0b1707217528692"></use>
</svg>
</g></svg></svg>